<svg width="301" height="36" viewBox="0 0 301 36" fill="none" xmlns="http://www.w3.org/2000/svg">
<path d="M4.6155 30.02L4.64694 30.0514L6.77234 27.9261L4.31996 25.4737L7.30054 22.4931L9.75292 24.9455L7.57093 32.9754L10.6018 36L17.8269 28.7749L15.6638 26.6055L11.2432 31.0261L13.1359 24.084L7.23137 18.1731L0 25.4045L4.6155 30.02Z" fill="white"/>
<path d="M20.6818 12.4641L15.2614 17.8844L13.6139 16.2369L19.0343 10.8166L16.8083 8.59056L8.87891 16.5199L19.4807 27.1217L27.4101 19.1924L20.6818 12.4641ZM23.1907 19.2175L19.9335 22.4748L17.2107 19.752L20.468 16.4948L23.1907 19.2175Z" fill="white"/>
<path d="M24.0397 4.98021L27.2089 1.80469L25.4042 -7.62939e-06L18.4055 6.9987L20.2039 8.79711L23.3103 5.69705L22.8324 11.4318L24.744 13.3372L25.2722 6.87294L31.5855 6.18124L29.8059 4.4017L24.0397 4.98021Z" fill="white"/>
<path d="M24.8257 13.4263L26.643 15.2436L28.7558 14.3067L31.4283 16.9791L30.4662 19.0731L32.3024 20.9092L36.3771 10.9865L34.7925 9.4019L24.8195 13.4326L24.8257 13.4263ZM30.6611 13.4389L33.5851 12.1498L32.2961 15.0738L30.6611 13.4389Z" fill="white"/>
<path d="M34.1632 19.6069L32.5848 21.1852L40.2124 28.8128L41.7907 27.2344L41.1053 26.549L44.2368 18.8335L42.6396 17.2363L34.8989 20.3363L34.1695 19.6069H34.1632ZM41.47 19.9465L39.3006 24.7506L36.6658 22.1159L41.47 19.9465Z" fill="white"/>
<path d="M40.8225 29.4224L42.514 31.1139L44.5325 29.0954L48.1922 32.7551L53.1724 27.7749L47.8275 22.43L40.8288 29.4287H40.8225V29.4224ZM46.0354 27.6177L48.123 25.5301L50.3176 27.7246L48.2299 29.8123L46.0354 27.6177Z" fill="white"/>
<path d="M76.9005 8.2H79.5605L71.8325 27.8H69.1725L76.9005 8.2Z" fill="white"/>
<path d="M98.6404 29.592H95.5604V9.992H105.276V29.592H102.14V12.792H98.6404V29.592Z" fill="white"/>
<path d="M117.45 29.592H114.342L113.81 26.036H110.03L109.498 29.592H106.67L109.806 9.992H114.314L117.45 29.592ZM110.422 23.376H113.39L111.906 13.464L110.422 23.376Z" fill="white"/>
<path d="M123.393 9.992C124.943 9.992 126.091 10.4027 126.837 11.224C127.603 12.0453 127.985 13.2493 127.985 14.836V17.384C127.985 18.9707 127.603 20.1747 126.837 20.996C126.091 21.8173 124.943 22.228 123.393 22.228H121.937V29.592H118.857V9.992H123.393ZM121.937 12.792V19.428H123.393C123.879 19.428 124.252 19.2973 124.513 19.036C124.775 18.7747 124.905 18.2893 124.905 17.58V14.64C124.905 13.9307 124.775 13.4453 124.513 13.184C124.252 12.9227 123.879 12.792 123.393 12.792H121.937Z" fill="white"/>
<path d="M128.545 9.992H138.065V12.792H134.845V29.592H131.765V12.792H128.545V9.992Z" fill="white"/>
<path d="M142.554 29.592H139.474V9.992H142.554V18.392H146.054V9.992H149.19V29.592H146.054V21.192H142.554V29.592Z" fill="white"/>
<path d="M154.504 18.252H158.732V21.052H154.504V26.792H159.824V29.592H151.424V9.992H159.824V12.792H154.504V18.252ZM154.784 6.184V9.04H151.928V6.184H154.784ZM159.264 6.184V9.04H156.408V6.184H159.264Z" fill="white"/>
<path d="M166.186 9.992C167.736 9.992 168.884 10.4027 169.63 11.224C170.396 12.0453 170.778 13.2493 170.778 14.836V17.384C170.778 18.9707 170.396 20.1747 169.63 20.996C168.884 21.8173 167.736 22.228 166.186 22.228H164.73V29.592H161.65V9.992H166.186ZM164.73 12.792V19.428H166.186C166.672 19.428 167.045 19.2973 167.306 19.036C167.568 18.7747 167.698 18.2893 167.698 17.58V14.64C167.698 13.9307 167.568 13.4453 167.306 13.184C167.045 12.9227 166.672 12.792 166.186 12.792H164.73Z" fill="white"/>
<path d="M181.082 22.284V24.888C181.082 26.4747 180.69 27.6973 179.906 28.556C179.14 29.396 178.002 29.816 176.49 29.816C174.978 29.816 173.83 29.396 173.046 28.556C172.28 27.6973 171.898 26.4747 171.898 24.888V14.696C171.898 13.1093 172.28 11.896 173.046 11.056C173.83 10.1973 174.978 9.768 176.49 9.768C178.002 9.768 179.14 10.1973 179.906 11.056C180.69 11.896 181.082 13.1093 181.082 14.696V16.6H178.17V14.5C178.17 13.7907 178.02 13.296 177.722 13.016C177.442 12.7173 177.059 12.568 176.574 12.568C176.088 12.568 175.696 12.7173 175.398 13.016C175.118 13.296 174.978 13.7907 174.978 14.5V25.084C174.978 25.7933 175.118 26.288 175.398 26.568C175.696 26.848 176.088 26.988 176.574 26.988C177.059 26.988 177.442 26.848 177.722 26.568C178.02 26.288 178.17 25.7933 178.17 25.084V22.284H181.082Z" fill="white"/>
<path d="M187.065 21.78L186.113 23.572V29.592H183.033V9.992H186.113V18.532L190.201 9.992H193.225L188.941 18.728L193.225 29.592H190.061L187.065 21.78Z" fill="white"/>
<path d="M197.791 29.592H194.627V9.992H197.371V21.724L200.535 9.992H204.399V29.592H201.627V15.396L197.791 29.592Z" fill="white"/>
<path d="M209.711 18.252H213.939V21.052H209.711V26.792H215.031V29.592H206.631V9.992H215.031V12.792H209.711V18.252Z" fill="white"/>
<path d="M224.285 29.592H221.205V9.992H230.921V29.592H227.785V12.792H224.285V29.592Z" fill="white"/>
<path d="M237.69 9.992C239.24 9.992 240.388 10.4027 241.134 11.224C241.9 12.0453 242.282 13.2493 242.282 14.836V17.384C242.282 18.9707 241.9 20.1747 241.134 20.996C240.388 21.8173 239.24 22.228 237.69 22.228H236.234V29.592H233.154V9.992H237.69ZM236.234 12.792V19.428H237.69C238.176 19.428 238.549 19.2973 238.81 19.036C239.072 18.7747 239.202 18.2893 239.202 17.58V14.64C239.202 13.9307 239.072 13.4453 238.81 13.184C238.549 12.9227 238.176 12.792 237.69 12.792H236.234Z" fill="white"/>
<path d="M246.482 25.084C246.482 25.7933 246.622 26.2973 246.902 26.596C247.2 26.876 247.592 27.016 248.078 27.016C248.563 27.016 248.946 26.876 249.226 26.596C249.524 26.2973 249.674 25.7933 249.674 25.084V14.5C249.674 13.7907 249.524 13.296 249.226 13.016C248.946 12.7173 248.563 12.568 248.078 12.568C247.592 12.568 247.2 12.7173 246.902 13.016C246.622 13.296 246.482 13.7907 246.482 14.5V25.084ZM243.402 14.696C243.402 13.1093 243.803 11.896 244.606 11.056C245.408 10.1973 246.566 9.768 248.078 9.768C249.59 9.768 250.747 10.1973 251.55 11.056C252.352 11.896 252.754 13.1093 252.754 14.696V24.888C252.754 26.4747 252.352 27.6973 251.55 28.556C250.747 29.396 249.59 29.816 248.078 29.816C246.566 29.816 245.408 29.396 244.606 28.556C243.803 27.6973 243.402 26.4747 243.402 24.888V14.696Z" fill="white"/>
<path d="M257.781 18.252H262.009V21.052H257.781V26.792H263.101V29.592H254.701V9.992H263.101V12.792H257.781V18.252Z" fill="white"/>
<path d="M268.96 21.78L268.008 23.572V29.592H264.928V9.992H268.008V18.532L272.096 9.992H275.12L270.836 18.728L275.12 29.592H271.956L268.96 21.78Z" fill="white"/>
<path d="M275.681 9.992H285.201V12.792H281.981V29.592H278.901V12.792H275.681V9.992Z" fill="white"/>
<path d="M291.147 26.792C291.633 26.792 292.006 26.6613 292.267 26.4C292.529 26.1387 292.659 25.6533 292.659 24.944V22.004C292.659 21.2947 292.529 20.8093 292.267 20.548C292.006 20.2867 291.633 20.156 291.147 20.156H289.691V26.792H291.147ZM286.611 29.592V9.992H289.691V17.356H291.147C292.697 17.356 293.845 17.7667 294.591 18.588C295.357 19.4093 295.739 20.6133 295.739 22.2V24.748C295.739 26.3347 295.357 27.5387 294.591 28.36C293.845 29.1813 292.697 29.592 291.147 29.592H286.611ZM297.251 9.992H300.331V29.592H297.251V9.992Z" fill="white"/>
</svg>
