<svg width="1440" height="86" viewBox="0 0 1440 86" fill="none" xmlns="http://www.w3.org/2000/svg">
<path d="M1443.52 96C1441.25 92.1306 1427.45 94.8362 1419.66 96C1411.88 97.1639 1394.64 92.899 1385.26 96C1375.88 99.101 1370.01 99.6207 1361.91 96C1353.81 92.3794 1346.39 97.7822 1340.75 96C1335.1 94.2179 1330.06 94.8711 1327.02 96C1323.99 97.129 1324.61 96.1575 1323.53 96C1322.45 95.8426 1324.88 96.5946 1320.96 96C1317.05 95.4055 1309.95 96.1811 1307.27 96C1304.59 95.819 1302.98 95.518 1300.87 96C1298.75 96.482 1297.97 94.1012 1295.15 96C1292.33 97.8988 1289.97 96.6501 1284.41 96C1278.85 95.35 1267.73 100.371 1265.17 96C1262.6 91.6293 1264.4 97.7174 1263.56 96C1262.73 94.2826 1261.17 96.9989 1258.02 96C1254.86 95.0011 1244.75 112.102 1241.5 96C1238.25 79.8978 1240.68 96.7509 1233.49 96C1226.3 95.2491 1226.88 93.3684 1220.42 96C1213.96 98.6316 1199.31 90.3347 1196.35 96C1193.39 101.665 1192.34 95.6008 1188.08 96C1183.82 96.3992 1176.21 93.6361 1171.15 96C1166.08 98.364 1169.64 94.0663 1161.91 96C1154.18 97.9337 1136.14 94.0901 1127.96 96C1119.77 97.9099 1114.78 89.5019 1106.73 96C1098.68 102.498 1083.51 89.6386 1079.12 96C1074.73 102.361 1074.82 97.9208 1072.13 96C1069.44 94.0793 1071.02 95.1297 1066.32 96C1061.63 96.8703 1055.02 98.0609 1047.79 96C1040.56 93.9392 1041.56 94.486 1037.63 96C1033.69 97.514 1026.92 94.1186 1022.78 96C1018.64 97.8814 1017.14 93.5296 1013.8 96C1010.46 98.4704 1010.79 94.6824 1004.92 96C999.041 97.3176 986.734 91.7218 979.072 96C971.41 100.278 962.207 102.841 957.171 96C952.135 89.159 932.711 101.752 925.297 96C917.883 90.2484 906.603 96 899.227 96C891.852 96 882.054 96 877.101 96C872.149 96 872.341 96 869.896 96C867.451 96 865.538 96 863.185 96C860.831 96 860.812 96 858.824 96C856.836 96 858.789 97.6019 855.329 96C851.868 94.3982 845.266 95.7472 840.578 96C835.89 96.2529 836.626 94.466 831.728 96C826.83 97.534 822.494 95.5684 815.085 96C807.677 96.4317 797.208 92.5334 789.753 96C782.298 99.4667 774.306 98.0444 768.846 96C763.385 93.9556 763.835 96.2761 761.342 96C758.85 95.7239 758.43 93.5013 756.372 96C754.314 98.4988 751.848 96 749.43 96C747.012 96 745.828 99.3243 742.487 96C739.147 92.6757 735.478 91.5948 728.955 96C722.432 100.405 721.876 95.3422 714.782 96C707.688 96.6579 693.533 97.2008 686.852 96C680.171 94.7992 678.707 95.9682 675.148 96C671.589 96.0318 673.898 96 667.805 96C661.712 96 649.255 96 644.108 96C638.961 96 640.02 96 634.937 96C629.855 96 629.395 100.966 624.291 96C619.187 91.0341 607.936 92.0171 602.839 96C597.742 99.9829 596.544 94.7197 594.566 96C592.587 97.2804 592.096 96 588.601 96C585.106 96 583.102 96 578.532 96C573.963 96 571.574 96 566.828 96C562.082 96 553.282 94.5844 545.953 96C538.624 97.4157 526.297 96 520.3 96C514.304 96 506.944 96 502.247 96C497.549 96 495.979 95.6983 492.819 96C489.659 96.3018 476.626 96 473.227 96C469.828 96 476.305 96 472.97 96C469.635 96 460.593 96 455.398 96C450.203 96 449.562 96 442.571 96C435.581 96 418.204 97.6171 411.634 96C405.064 94.3829 406.121 97.509 402.014 96C397.907 94.491 394.058 94.4723 387.841 96C381.623 97.5277 377.667 96.4791 371.808 96C365.948 95.5209 367.317 98.4936 363.022 96C358.726 93.5065 355.833 93.6296 349.842 96C343.852 98.3704 337.43 93.1067 331.853 96C326.276 98.8934 327.501 95.2898 322.49 96C317.479 96.7102 313.206 93.3278 308.316 96C303.427 98.6723 298.601 94.7608 293.855 96C289.108 97.2392 289.009 98.297 285.646 96C282.282 93.703 282.326 101.298 280.13 96C277.934 90.7019 277.787 95.6735 274.166 96C270.545 96.3265 268.387 94.8996 263.937 96C259.487 97.1004 257.657 94.481 252.393 96C247.128 97.5191 242.878 95.1964 239.566 96C236.254 96.8037 234.737 99.6144 230.973 96C227.208 92.3857 227.086 90.9664 221 96C214.914 101.034 206.669 95.8155 198.868 96C191.067 96.1845 184.887 96 178.57 96C172.253 96 167.699 96 162.537 96C157.374 96 153.013 96 148.395 96C143.778 96 138.855 93.9102 134.864 96C130.872 98.0898 129.282 90.4976 124.378 96C119.474 101.502 110.574 95.2366 104.497 96C98.4194 96.7634 95.9715 99.5664 92.3757 96C88.78 92.4337 88.3418 93.8759 82.7558 96C77.1698 98.1242 65.9852 103.204 60.6622 96C55.3392 88.7964 44.4244 94.1671 37.0293 96C29.6343 97.8329 27.6905 93.8181 24.3632 96C21.0359 98.182 22.1285 96.9833 20.6435 96C19.1584 95.0168 22.0917 99.6621 17.8216 96C13.5515 92.338 0.465676 91.6453 -2.92525 96C-6.31617 100.355 -5.16988 55.4674 -7.44659 48.0889C-9.72329 39.311 -12 30.1197 -12 29.2928C-6.54873 32.7912 -1.12953 39.6609 4.6424 40.3287C7.84902 38.993 15.1922 43.5091 18.3988 40.3287C23.4974 39.311 26.7361 33.7135 31.4177 37.6254C36.3559 35.0175 41.3583 33.2683 46.1682 37.848C51.395 39.9789 54.9544 51.9372 60.6622 45.6718C69.0956 45.8308 74.2903 46.7532 80.9601 52.5415C87.6299 58.3298 98.5645 52.287 106.389 48.5342C113.507 47.6119 121.075 42.9367 128.546 47.6755C136.05 45.7672 143.457 46.4033 150.287 44.9085C158.272 37.8798 166.064 34.6994 175.139 36.9893C183.444 38.5795 190.755 42.2052 199.285 36.5759C203.229 41.8235 206.211 36.7985 210.155 34.9221C218.521 33.5384 226.79 31.6263 234.91 29.1974C241.516 27.1937 245.204 17.907 251.489 18.7657C256.17 9.98777 261.493 22.5821 266.271 18.7657C271.209 21.2782 274.961 17.7797 280.124 14.7901C284.485 19.5289 289.231 12.9773 293.624 14.981C302.217 14.3449 314.852 12.3731 322.483 17.1437C324.92 14.6947 326.363 15.0446 329.121 21.9143C332.552 21.9143 336.913 17.6525 340.44 22.1369C344.898 22.1369 346.661 28.4977 350.862 25.8579C352.85 29.0383 354.742 26.1442 356.73 26.1124C357.66 26.1124 359.456 23.3136 360.867 29.897C364.394 30.0879 369.3 26.7167 373.084 32.5368C376.29 34.8267 379.144 39.1838 382.447 34.286C386.359 30.3741 387.385 24.9674 392.067 27.6072C393.526 28.0108 394.883 28.7113 396.054 29.6641C397.224 30.6169 398.182 31.801 398.865 33.141C403.515 40.2651 410.345 33.8089 415.924 34.7948C427.019 37.3074 438.178 40.5832 449.273 34.7948C452.095 35.8762 454.308 34.5404 457.001 35.4945C461.074 40.2015 460.849 37.7208 465.403 40.3924C473.034 39.9471 481.019 34.1906 488.811 38.3569C493.076 44.7177 496.699 38.8976 501.092 40.2333C501.619 39.6194 502.284 39.1367 503.034 38.8241C503.783 38.5114 504.596 38.3776 505.407 38.4333C506.218 38.489 507.004 38.7326 507.703 39.1447C508.402 39.5568 508.993 40.1257 509.43 40.8058C512.476 43.7954 511.129 45.8944 512.829 48.9794C515.715 52.1598 525.912 53.0821 531.203 51.0149C535.948 44.3042 540.823 47.1666 545.44 51.0149C552.366 53.8136 557.497 52.0008 563.301 47.0394C566.732 36.9575 568.303 44.3679 571.991 41.9507C575.39 43.9544 577.603 36.7349 580.649 37.8798C585.908 33.5545 592.642 38.1343 599.6 32.4414C606.59 30.6603 613.837 28.1796 620.154 32.982C628.043 31.4236 636.188 34.127 643.627 34.763C647.443 39.9153 647.25 38.4841 651.419 36.4805C654.642 37.0436 657.73 38.1977 660.526 39.8835C666.073 33.5227 673.16 35.3673 679.028 40.1697C684.672 38.0389 690.412 39.9471 696.023 40.1697C703.623 42.714 711.832 37.4346 720.041 36.6395C728.218 40.8058 736.363 42.8413 743.802 40.0425C746.111 43.9226 747.65 41.5691 749.702 45.0993C750.151 41.9189 753.39 48.2797 753.646 48.7886C758.264 52.7323 762.689 47.2938 766.986 47.4528C772.758 45.6718 777.44 50.8877 782.634 43.6682C787.292 41.5254 791.518 38.562 795.108 34.9221C800.068 34.2218 805.126 34.9274 809.698 36.9575C811.697 37.4185 813.784 37.3336 815.737 36.712C817.691 36.0904 819.438 34.9553 820.793 33.4273C823.102 28.8475 823.102 27.0665 826.373 31.5509C829.772 28.5613 833.267 41.6327 836.602 38.3887C841.219 41.2511 846.799 38.5795 851.833 39.6291C858.663 37.9116 865.718 30.5013 872.837 37.9116C879.955 39.7563 887.106 35.6854 894.065 38.2297C896.886 33.1092 902.915 42.8094 905.256 38.2297C907.597 40.3287 907.468 40.3606 909.905 45.5128C912.342 53.9727 917.313 53.8454 920.327 47.1984C924.19 47.4196 928.052 46.7558 931.614 45.2584C936.841 38.3251 942.196 44.8767 947.423 45.0993C952.252 44.4598 957.141 45.715 961.051 48.5978C968.49 51.7782 972.755 46.8804 978.367 42.9049C981.573 38.0707 982.183 40.6786 986.031 39.0248C988.564 34.9539 990.712 38.834 993.31 34.763C997.767 36.4487 1003.57 29.897 1008.25 34.445C1012.87 32.7912 1015.66 35.7172 1019.76 36.4169C1022.68 35.4309 1024.25 40.3605 1026.5 34.0634C1030.15 27.7026 1030.19 38.7704 1034.58 30.883C1040.09 36.9257 1045.9 30.883 1051.45 30.883C1054.24 27.4481 1057.44 32.1869 1060.2 30.883C1064.63 30.2469 1062.54 32.0597 1065.97 34.0634C1070.11 38.6113 1074.12 42.7458 1079.47 36.2578C1083.42 40.2015 1087.36 37.7526 1091.3 36.2578C1094.51 35.3673 1097.72 36.6713 1100.64 35.9398C1103.46 38.2933 1106.21 33.7135 1109.29 32.0915C1112.31 27.6708 1115.55 32.9184 1118.56 30.1833C1123.95 31.9961 1127.96 24.3632 1133.31 22.1687C1138.67 13.9315 1144.6 21.8507 1150.08 21.5644C1154.41 17.8434 1157.55 22.4549 1161.91 16.762C1164.64 25.5081 1167.27 14.8219 1169.83 15.5852C1171.5 15.9987 1173.3 8.17487 1175.19 12.6274C1176.82 9.9877 1178.78 17.5888 1180.48 12.9137C1185.77 13.5815 1187.47 13.0726 1191.48 7.34793C1199.98 2.22749 1209.92 -4.57859 1220.34 2.00483C1225.82 0.796279 1231.27 2.41828 1236.76 2.00483C1244.23 -1.17557 1251.67 3.05436 1259.2 2.00483C1266.67 -0.79392 1274.11 2.00483 1281.65 2.00483C1286.07 3.30879 1289.12 5.18524 1293.1 3.84947C1296.14 5.28065 1299.51 0.923504 1302.72 3.65865C1308.36 1.81402 1316.25 0.287465 1321.03 8.81093C1323.11 11.9913 1323.66 15.617 1325.48 13.0727C1326.64 11.1008 1327.79 13.0727 1328.95 16.444C1330.87 20.9919 1331.71 23.7589 1331.48 22.0097C1337.54 27.9888 1354.34 22.4867 1363.55 25.8261C1370.31 26.9711 1376.98 29.1656 1384.23 27.0983C1388.3 24.3314 1390.35 29.6426 1394.07 30.5331C1399.3 31.6145 1405.75 28.0206 1411.1 30.8512C1418.51 32.346 1425.76 26.8757 1433.03 29.9607C1440.31 30.2151 1447.59 31.7417 1455 29.0383C1455.06 30.8512 1445.79 99.8694 1443.52 96Z" fill="white"/>
</svg>
